<svg width="11" height="20" viewBox="0 0 11 20" fill="none" xmlns="http://www.w3.org/2000/svg">
<path d="M2.184 10.0003L9.71675 17.533C9.91542 17.7317 10.0123 17.9656 10.0073 18.2348C10.0021 18.5041 9.90017 18.7381 9.7015 18.9368C9.50267 19.1354 9.26867 19.2348 8.9995 19.2348C8.73033 19.2348 8.49634 19.1354 8.2975 18.9368L0.6265 11.281C0.445667 11.1002 0.311667 10.8976 0.2245 10.6733C0.137333 10.4489 0.09375 10.2246 0.09375 10.0003C0.09375 9.77592 0.137333 9.55159 0.2245 9.32726C0.311667 9.10292 0.445667 8.90034 0.6265 8.71951L8.2975 1.04826C8.49634 0.849592 8.73292 0.752842 9.00725 0.758009C9.28158 0.763176 9.51808 0.865092 9.71675 1.06376C9.91542 1.26243 10.0148 1.49643 10.0148 1.76576C10.0148 2.03493 9.91542 2.26884 9.71675 2.46751L2.184 10.0003Z" fill="#1C1B1F"/>
</svg>
