<svg width="12" height="12" viewBox="0 0 12 12" fill="none" xmlns="http://www.w3.org/2000/svg">
<path d="M1.75 0C1.28587 0 0.840752 0.184375 0.512563 0.512563C0.184375 0.840752 0 1.28587 0 1.75V9.5C0 10.163 0.263392 10.7989 0.732233 11.2678C1.20107 11.7366 1.83696 12 2.5 12H9.5C10.163 12 10.7989 11.7366 11.2678 11.2678C11.7366 10.7989 12 10.163 12 9.5V8H9V1.75C9 1.28587 8.81563 0.840752 8.48744 0.512563C8.15925 0.184375 7.71413 0 7.25 0H1.75ZM9 9H11V9.5C11 9.89782 10.842 10.2794 10.5607 10.5607C10.2794 10.842 9.89782 11 9.5 11H9V9ZM1 1.75C1 1.55109 1.07902 1.36032 1.21967 1.21967C1.36032 1.07902 1.55109 1 1.75 1H7.25C7.44891 1 7.63968 1.07902 7.78033 1.21967C7.92098 1.36032 8 1.55109 8 1.75V11H2.5C2.10218 11 1.72064 10.842 1.43934 10.5607C1.15804 10.2794 1 9.89782 1 9.5V1.75ZM2.5 3.5C2.5 3.36739 2.55268 3.24021 2.64645 3.14645C2.74021 3.05268 2.86739 3 3 3H6C6.13261 3 6.25979 3.05268 6.35355 3.14645C6.44732 3.24021 6.5 3.36739 6.5 3.5C6.5 3.63261 6.44732 3.75979 6.35355 3.85355C6.25979 3.94732 6.13261 4 6 4H3C2.86739 4 2.74021 3.94732 2.64645 3.85355C2.55268 3.75979 2.5 3.63261 2.5 3.5ZM2.5 6C2.5 5.86739 2.55268 5.74021 2.64645 5.64645C2.74021 5.55268 2.86739 5.5 3 5.5H6C6.13261 5.5 6.25979 5.55268 6.35355 5.64645C6.44732 5.74021 6.5 5.86739 6.5 6C6.5 6.13261 6.44732 6.25979 6.35355 6.35355C6.25979 6.44732 6.13261 6.5 6 6.5H3C2.86739 6.5 2.74021 6.44732 2.64645 6.35355C2.55268 6.25979 2.5 6.13261 2.5 6ZM3 8C2.86739 8 2.74021 8.05268 2.64645 8.14645C2.55268 8.24021 2.5 8.36739 2.5 8.5C2.5 8.63261 2.55268 8.75979 2.64645 8.85355C2.74021 8.94732 2.86739 9 3 9H4.5C4.63261 9 4.75979 8.94732 4.85355 8.85355C4.94732 8.75979 5 8.63261 5 8.5C5 8.36739 4.94732 8.24021 4.85355 8.14645C4.75979 8.05268 4.63261 8 4.5 8H3Z" fill="#654321"/>
</svg>
