<svg width="16" height="16" viewBox="0 0 16 16" fill="none" xmlns="http://www.w3.org/2000/svg">
<mask id="mask0_547_2110" style="mask-type:alpha" maskUnits="userSpaceOnUse" x="0" y="0" width="16" height="16">
<rect width="16" height="16" fill="#D9D9D9"/>
</mask>
<g mask="url(#mask0_547_2110)">
<path d="M14.3327 4.20517V11.7948C14.3327 12.1316 14.216 12.4167 13.9827 12.65C13.7493 12.8833 13.4643 13 13.1275 13H2.87118C2.5344 13 2.24935 12.8833 2.01602 12.65C1.78268 12.4167 1.66602 12.1316 1.66602 11.7948V4.20517C1.66602 3.86839 1.78268 3.58333 2.01602 3.35C2.24935 3.11667 2.5344 3 2.87118 3H13.1275C13.4643 3 13.7493 3.11667 13.9827 3.35C14.216 3.58333 14.3327 3.86839 14.3327 4.20517ZM2.66602 5.60267H13.3327V4.20517C13.3327 4.15383 13.3113 4.10683 13.2685 4.06417C13.2259 4.02139 13.1789 4 13.1275 4H2.87118C2.81985 4 2.77285 4.02139 2.73018 4.06417C2.6874 4.10683 2.66602 4.15383 2.66602 4.20517V5.60267ZM2.66602 7.73067V11.7948C2.66602 11.8462 2.6874 11.8932 2.73018 11.9358C2.77285 11.9786 2.81985 12 2.87118 12H13.1275C13.1789 12 13.2259 11.9786 13.2685 11.9358C13.3113 11.8932 13.3327 11.8462 13.3327 11.7948V7.73067H2.66602Z" fill="#1C1B1F"/>
</g>
</svg>
