<svg width="16" height="16" viewBox="0 0 16 16" fill="none" xmlns="http://www.w3.org/2000/svg">
<mask id="mask0_547_1907" style="mask-type:alpha" maskUnits="userSpaceOnUse" x="0" y="0" width="16" height="16">
<rect x="0.5" y="0.5" width="15" height="15" fill="#D9D9D9" stroke="#654321"/>
</mask>
<g mask="url(#mask0_547_1907)">
<path d="M2.65352 5.61517V5.60267V4.20517C2.65352 4.14993 2.67667 4.09988 2.72136 4.05532M2.65352 5.61517L13.2774 4.05534L13.2685 4.06417L13.2773 4.05532M2.65352 5.61517H2.66602H13.3327H13.3452V5.60267V4.20517C13.3452 4.14993 13.322 4.09988 13.2773 4.05532M2.65352 5.61517L13.2773 4.05532M2.72136 4.05532L2.73018 4.06417L2.72133 4.05534C2.72134 4.05533 2.72135 4.05532 2.72136 4.05532ZM2.72136 4.05532C2.76591 4.01065 2.81595 3.9875 2.87118 3.9875H13.1275C13.1827 3.9875 13.2328 4.01065 13.2773 4.05532M2.65352 7.71817H2.66602H13.3327H13.3452V7.73067V11.7948C13.3452 11.8501 13.322 11.9001 13.2774 11.9447C13.2774 11.9447 13.2774 11.9447 13.2773 11.9447L13.2685 11.9358C13.2259 11.9786 13.1789 12 13.1275 12H2.87118L2.65352 7.71817ZM2.65352 7.71817V7.73067V11.7948C2.65352 11.8501 2.67667 11.9001 2.72133 11.9447L2.65352 7.71817ZM14.3202 4.20517V11.7948C14.3202 12.1284 14.2048 12.4102 13.9738 12.6412C13.7429 12.8721 13.4611 12.9875 13.1275 12.9875H2.87118C2.53764 12.9875 2.25579 12.8721 2.02485 12.6412C1.79392 12.4102 1.67852 12.1284 1.67852 11.7948V4.20517C1.67852 3.87163 1.79392 3.58977 2.02485 3.35884C2.25579 3.1279 2.53764 3.0125 2.87118 3.0125H13.1275C13.4611 3.0125 13.7429 3.1279 13.9738 3.35884C14.2048 3.58977 14.3202 3.87163 14.3202 4.20517Z" fill="#654321" stroke="#654321" stroke-width="0.025"/>
</g>
</svg>
