<svg width="33" height="27" viewBox="0 0 33 27" fill="none" xmlns="http://www.w3.org/2000/svg">
<rect x="0.5" y="0.5" width="31.5297" height="26" rx="3.5" stroke="black" stroke-opacity="0.4"/>
<path d="M19.5513 22C19.9791 22 20.3428 21.8501 20.6424 21.5503C20.9421 21.2506 21.0919 20.8869 21.0919 20.4592C21.0919 20.0313 20.9421 19.6675 20.6424 19.3678C20.3428 19.0682 19.9791 18.9183 19.5513 18.9183C19.1234 18.9183 18.7596 19.0682 18.46 19.3678C18.1603 19.6675 18.0105 20.0313 18.0105 20.4592C18.0105 20.8869 18.1603 21.2506 18.46 21.5503C18.7596 21.8501 19.1234 22 19.5513 22ZM11.0173 22C11.4452 22 11.809 21.8501 12.1086 21.5503C12.4083 21.2506 12.5581 20.8869 12.5581 20.4592C12.5581 20.0313 12.4083 19.6675 12.1086 19.3678C11.809 19.0682 11.4452 18.9183 11.0173 18.9183C10.5895 18.9183 10.2258 19.0682 9.92617 19.3678C9.62652 19.6675 9.47669 20.0313 9.47669 20.4592C9.47669 20.8869 9.62652 21.2506 9.92617 21.5503C10.2258 21.8501 10.5895 22 11.0173 22ZM20.5537 8.08166L18.3219 12.755H12.3195C12.2687 12.755 12.2236 12.7423 12.1839 12.7169C12.1445 12.6915 12.1106 12.6562 12.0825 12.6111L9.72036 8.31873C9.68646 8.25666 9.68367 8.20163 9.71199 8.15364C9.74017 8.10566 9.78816 8.08166 9.85595 8.08166H20.5537ZM21.1868 6.76095H8.96183C8.60172 6.76095 8.32943 6.91423 8.14497 7.22078C7.96036 7.52718 7.95156 7.84012 8.11856 8.15959L10.9396 13.2696C11.084 13.5237 11.275 13.7215 11.5126 13.8631C11.7503 14.0048 12.0108 14.0757 12.294 14.0757H18.7182L19.7375 15.9381C19.7827 16.0059 19.7841 16.0793 19.7417 16.1583C19.6994 16.2374 19.636 16.2769 19.5513 16.2769H10.1368C9.94958 16.2769 9.79271 16.3401 9.66621 16.4664C9.53986 16.5929 9.47669 16.7499 9.47669 16.9373C9.47669 17.1247 9.53986 17.2815 9.66621 17.4079C9.79271 17.5344 9.94958 17.5976 10.1368 17.5976H19.5513C20.1383 17.5976 20.5793 17.3445 20.8744 16.8382C21.1697 16.3319 21.1801 15.8265 20.9057 15.3218L19.6495 13.0632L22.8529 6.32071H23.8689C24.0563 6.32071 24.2132 6.25747 24.3396 6.13097C24.466 6.00462 24.5293 5.84775 24.5293 5.66036C24.5293 5.47296 24.466 5.31609 24.3396 5.18974C24.2132 5.06325 24.0563 5 23.8689 5H22.5229C22.3726 5 22.2327 5.03977 22.1029 5.1193C21.9731 5.19899 21.8743 5.31103 21.8066 5.45543L21.1868 6.76095Z" fill="black" fill-opacity="0.4"/>
</svg>
