<svg width="20" height="20" viewBox="0 0 20 20" fill="none" xmlns="http://www.w3.org/2000/svg">
<path d="M13.5908 20C14.0941 20 14.522 19.8236 14.8745 19.4709C15.227 19.1184 15.4033 18.6905 15.4033 18.1873C15.4033 17.6838 15.227 17.2559 14.8745 16.9033C14.522 16.5508 14.0941 16.3745 13.5908 16.3745C13.0874 16.3745 12.6594 16.5508 12.3069 16.9033C11.9543 17.2559 11.7781 17.6838 11.7781 18.1873C11.7781 18.6905 11.9543 19.1184 12.3069 19.4709C12.6594 19.8236 13.0874 20 13.5908 20ZM3.5508 20C4.05422 20 4.4822 19.8236 4.83474 19.4709C5.18727 19.1184 5.36354 18.6905 5.36354 18.1873C5.36354 17.6838 5.18727 17.2559 4.83474 16.9033C4.4822 16.5508 4.05422 16.3745 3.5508 16.3745C3.04754 16.3745 2.61965 16.5508 2.26711 16.9033C1.91458 17.2559 1.73831 17.6838 1.73831 18.1873C1.73831 18.6905 1.91458 19.1184 2.26711 19.4709C2.61965 19.8236 3.04754 20 3.5508 20ZM14.7701 3.62549L12.1445 9.12354H5.08282C5.02309 9.12354 4.96992 9.10861 4.9233 9.07874C4.87686 9.04887 4.83707 9.00735 4.80392 8.95418L2.02498 3.90439C1.9851 3.83136 1.98182 3.76662 2.01514 3.71017C2.04829 3.65372 2.10474 3.62549 2.18451 3.62549H14.7701ZM15.5149 2.07171H1.1326C0.708931 2.07171 0.388594 2.25203 0.171583 2.61268C-0.0456009 2.97316 -0.0559578 3.34132 0.140509 3.71716L3.45938 9.729C3.62926 10.0278 3.85396 10.2606 4.13346 10.4272C4.41314 10.5939 4.71958 10.6773 5.05278 10.6773H12.6106L13.8099 12.8684C13.8631 12.9482 13.8647 13.0345 13.8148 13.1274C13.7651 13.2204 13.6904 13.267 13.5908 13.267H2.51494C2.29465 13.267 2.1101 13.3413 1.96128 13.4899C1.81263 13.6387 1.73831 13.8234 1.73831 14.0438C1.73831 14.2643 1.81263 14.4489 1.96128 14.5975C2.1101 14.7463 2.29465 14.8207 2.51494 14.8207H13.5908C14.2814 14.8207 14.8003 14.5229 15.1474 13.9273C15.4948 13.3317 15.5071 12.737 15.1842 12.1433L13.7063 9.48609L17.475 1.55378H18.6704C18.8908 1.55378 19.0754 1.47937 19.224 1.33055C19.3729 1.18191 19.4473 0.997354 19.4473 0.77689C19.4473 0.556426 19.3729 0.371871 19.224 0.223226C19.0754 0.0744087 18.8908 0 18.6704 0H17.0868C16.91 0 16.7453 0.0467856 16.5927 0.140358C16.4399 0.234102 16.3237 0.365915 16.2441 0.535795L15.5149 2.07171Z" fill="#464646"/>
</svg>
