<svg width="6" height="6" viewBox="0 0 6 6" fill="none" xmlns="http://www.w3.org/2000/svg">
<path d="M2.99939 3.48411L0.604554 5.87894C0.533554 5.94983 0.454887 5.98316 0.368554 5.97894C0.28222 5.97461 0.203609 5.937 0.13272 5.86611C0.0618315 5.79522 0.026387 5.71444 0.026387 5.62377C0.026387 5.53322 0.0618315 5.45244 0.13272 5.38144L2.51472 2.99944L0.119887 0.621274C0.0489984 0.550274 0.015665 0.469496 0.0198873 0.378941C0.0242206 0.288385 0.0618315 0.207607 0.13272 0.136607C0.203609 0.065718 0.284387 0.0302734 0.375054 0.0302734C0.465609 0.0302734 0.546387 0.065718 0.617387 0.136607L2.99939 2.53144L5.37755 0.136607C5.44855 0.065718 5.52722 0.0302734 5.61355 0.0302734C5.69989 0.0302734 5.7785 0.065718 5.84939 0.136607C5.92294 0.210162 5.95972 0.291552 5.95972 0.380774C5.95972 0.470107 5.92294 0.550274 5.84939 0.621274L3.46739 2.99944L5.86222 5.39427C5.93311 5.46527 5.96855 5.54394 5.96855 5.63027C5.96855 5.71661 5.93311 5.79522 5.86222 5.86611C5.78866 5.93966 5.70728 5.97644 5.61805 5.97644C5.52872 5.97644 5.44855 5.93966 5.37755 5.86611L2.99939 3.48411Z" fill="#333333"/>
</svg>
