<svg width="7" height="12" viewBox="0 0 7 12" fill="none" xmlns="http://www.w3.org/2000/svg">
<path d="M5.29247 6.00022L1.04647 1.75397C0.952802 1.66047 0.902802 1.54572 0.896469 1.40972C0.889969 1.27389 0.939969 1.1528 1.04647 1.04647C1.1528 0.939968 1.27072 0.886719 1.40022 0.886719C1.52972 0.886719 1.64764 0.939968 1.75397 1.04647L6.14247 5.43472C6.22964 5.52205 6.29089 5.61122 6.32622 5.70222C6.36139 5.79322 6.37897 5.89255 6.37897 6.00022C6.37897 6.10789 6.36139 6.20722 6.32622 6.29822C6.29089 6.38922 6.22964 6.47839 6.14247 6.56572L1.75397 10.954C1.66047 11.0476 1.54572 11.0976 1.40972 11.104C1.27389 11.1105 1.1528 11.0605 1.04647 10.954C0.939969 10.8476 0.886719 10.7297 0.886719 10.6002C0.886719 10.4707 0.939969 10.3528 1.04647 10.2465L5.29247 6.00022Z" fill="#1C1B1F"/>
</svg>
