<svg width="28" height="28" viewBox="0 0 28 28" fill="none" xmlns="http://www.w3.org/2000/svg">
<path d="M9.3075 0L7.8772 0.642503C7.8772 2.66405 7.93357 6.18772 8.85657 8.90794C12.9643 9.80416 15.0357 9.80416 19.1434 8.90794C20.0805 6.19403 20.1228 3.44604 20.1298 0.642503L18.6925 0C18.3825 0.362276 17.8681 0.949238 17.1565 1.67695C16.6492 2.19196 16.1137 2.70949 15.5994 3.11595C15.3457 3.31918 15.0991 3.49464 14.8525 3.63159C14.5989 3.77044 14.3523 3.89036 14 3.89036C13.6477 3.89036 13.4011 3.77044 13.1475 3.63159C12.9009 3.49464 12.6543 3.31918 12.4006 3.11595C11.8863 2.70949 11.3508 2.19196 10.8435 1.67695C10.1319 0.949238 9.61751 0.362276 9.3075 0ZM8.70156 10.0377L0 25.6332C0.0197282 25.7026 0.0563664 25.7784 0.152189 25.873C0.293105 26.0182 0.545345 26.1949 0.899748 26.359C1.60996 26.6998 2.71193 27.0091 4.05133 27.2553C6.72874 27.7475 10.3714 28 14 28C17.6286 28 21.2713 27.7475 23.9487 27.2553C25.2874 27.0091 26.3936 26.6998 27.0981 26.359C27.4575 26.1949 27.7041 26.0182 27.845 25.873C27.9436 25.7784 27.9789 25.7026 28 25.6332L19.2984 10.0377C15.2119 10.915 12.7881 10.915 8.70156 10.0377Z" fill="#7209B7"/>
</svg>
