<svg width="17" height="16" viewBox="0 0 17 16" fill="none" xmlns="http://www.w3.org/2000/svg">
<path d="M8.48929 13.3227L4.24773 15.8806C4.08963 15.9729 3.93126 16.0117 3.77262 15.997C3.61398 15.9822 3.47043 15.9288 3.34195 15.8367C3.2133 15.7444 3.11399 15.6238 3.04403 15.475C2.97425 15.3262 2.96307 15.1615 3.0105 14.9811L4.13651 10.1649L0.391858 6.92344C0.251936 6.80187 0.162803 6.66104 0.124461 6.50095C0.0859368 6.34085 0.0960222 6.1853 0.154717 6.0343C0.213412 5.88347 0.298001 5.76018 0.408486 5.66441C0.51897 5.56865 0.669977 5.50604 0.861508 5.4766L5.80332 5.04484L7.72198 0.496906C7.79176 0.327727 7.89761 0.202614 8.03954 0.121568C8.18146 0.040522 8.33137 0 8.48929 0C8.6472 0 8.79712 0.040522 8.93904 0.121568C9.08096 0.202614 9.18681 0.327727 9.25659 0.496906L11.1753 5.04484L16.1171 5.4766C16.3086 5.50604 16.4596 5.56865 16.5701 5.66441C16.6806 5.76018 16.7652 5.88347 16.8239 6.0343C16.8826 6.1853 16.8926 6.34085 16.8541 6.50095C16.8158 6.66104 16.7266 6.80187 16.5867 6.92344L12.8421 10.1649L13.9681 14.9811C14.0155 15.1615 14.0043 15.3262 13.9345 15.475C13.8646 15.6238 13.7653 15.7444 13.6366 15.8367C13.5081 15.9288 13.3646 15.9822 13.2059 15.997C13.0473 16.0117 12.8889 15.9729 12.7308 15.8806L8.48929 13.3227Z" fill="#E0E0E0"/>
</svg>
