<svg width="29" height="26" viewBox="0 0 29 26" fill="none" xmlns="http://www.w3.org/2000/svg">
<path d="M19.6872 4.26562C17.3644 4.26562 15.3448 5.22742 14.1569 6.83922C12.969 5.22742 10.9493 4.26562 8.62658 4.26562C6.86714 4.26751 5.18035 4.91013 3.93624 6.05252C2.69213 7.19491 1.99228 8.74379 1.99023 10.3594C1.99023 13.325 4.00326 16.4115 7.974 19.5315C9.79353 20.9551 11.759 22.2136 13.8427 23.2893C13.9393 23.3369 14.0472 23.3619 14.1569 23.3619C14.2665 23.3619 14.3744 23.3369 14.471 23.2893C16.5548 22.2136 18.5202 20.9551 20.3397 19.5315C24.3105 16.4115 26.3235 13.325 26.3235 10.3594C26.3214 8.74379 25.6216 7.19491 24.3775 6.05252C23.1334 4.91013 21.4466 4.26751 19.6872 4.26562ZM14.1569 22.0502C12.3418 21.0884 3.3175 16.0184 3.3175 10.3594C3.31897 9.06686 3.87878 7.82766 4.87411 6.91371C5.86944 5.99977 7.21897 5.48572 8.62658 5.48437C10.8697 5.48437 12.7533 6.5843 13.543 8.35555C13.593 8.46731 13.6781 8.56291 13.7874 8.63018C13.8967 8.69746 14.0253 8.73338 14.1569 8.73338C14.2885 8.73338 14.4171 8.69746 14.5264 8.63018C14.6357 8.56291 14.7207 8.46731 14.7707 8.35555C15.5605 6.5843 17.4441 5.48437 19.6872 5.48437C21.0948 5.48572 22.4443 5.99977 23.4396 6.91371C24.4349 7.82766 24.9948 9.06686 24.9962 10.3594C24.9962 16.0184 15.9719 21.0884 14.1569 22.0502Z" fill="black"/>
</svg>
