<svg width="15" height="17" viewBox="0 0 15 17" fill="none" xmlns="http://www.w3.org/2000/svg">
<path d="M0 14.9999V6.15362C0 5.86745 0.0639998 5.59637 0.192 5.34037C0.320166 5.0842 0.497167 4.87328 0.723 4.70762L6.4155 0.419118C6.73133 0.178118 7.09233 0.0576172 7.4985 0.0576172C7.90467 0.0576172 8.26667 0.178118 8.5845 0.419118L14.277 4.70762C14.5028 4.87328 14.6798 5.0842 14.808 5.34037C14.936 5.59637 15 5.86745 15 6.15362V14.9999C15 15.4089 14.8523 15.7611 14.5568 16.0566C14.2613 16.3521 13.909 16.4999 13.5 16.4999H10.3077C10.0516 16.4999 9.83692 16.4132 9.66375 16.2399C9.49042 16.0667 9.40375 15.852 9.40375 15.5959V10.7114C9.40375 10.4554 9.31717 10.2407 9.144 10.0674C8.97083 9.8942 8.75617 9.80762 8.5 9.80762H6.5C6.24383 9.80762 6.02917 9.8942 5.856 10.0674C5.68283 10.2407 5.59625 10.4554 5.59625 10.7114V15.5959C5.59625 15.852 5.50958 16.0667 5.33625 16.2399C5.16308 16.4132 4.94842 16.4999 4.69225 16.4999H1.5C1.091 16.4999 0.73875 16.3521 0.44325 16.0566C0.14775 15.7611 0 15.4089 0 14.9999Z" fill="#654321"/>
</svg>
