<svg width="25" height="24" viewBox="0 0 25 24" fill="none" xmlns="http://www.w3.org/2000/svg">
<mask id="mask0_547_1589" style="mask-type:alpha" maskUnits="userSpaceOnUse" x="0" y="0" width="25" height="24">
<rect x="0.5" width="24" height="24" fill="#D9D9D9"/>
</mask>
<g mask="url(#mask0_547_1589)">
<path d="M5 18.9999V10.1536C5 9.86745 5.064 9.59637 5.192 9.34037C5.32017 9.0842 5.49717 8.87328 5.723 8.70762L11.4155 4.41912C11.7313 4.17812 12.0923 4.05762 12.4985 4.05762C12.9047 4.05762 13.2667 4.17812 13.5845 4.41912L19.277 8.70762C19.5028 8.87328 19.6798 9.0842 19.808 9.34037C19.936 9.59637 20 9.86745 20 10.1536V18.9999C20 19.4089 19.8523 19.7611 19.5568 20.0566C19.2613 20.3521 18.909 20.4999 18.5 20.4999H15.3077C15.0516 20.4999 14.8369 20.4132 14.6637 20.2399C14.4904 20.0667 14.4038 19.852 14.4038 19.5959V14.7114C14.4038 14.4554 14.3172 14.2407 14.144 14.0674C13.9708 13.8942 13.7562 13.8076 13.5 13.8076H11.5C11.2438 13.8076 11.0292 13.8942 10.856 14.0674C10.6828 14.2407 10.5963 14.4554 10.5963 14.7114V19.5959C10.5963 19.852 10.5096 20.0667 10.3363 20.2399C10.1631 20.4132 9.94842 20.4999 9.69225 20.4999H6.5C6.091 20.4999 5.73875 20.3521 5.44325 20.0566C5.14775 19.7611 5 19.4089 5 18.9999Z" fill="#1C1B1F" fill-opacity="0.6"/>
</g>
</svg>
