<svg width="24" height="24" viewBox="0 0 24 24" fill="none" xmlns="http://www.w3.org/2000/svg">
<mask id="mask0_547_1673" style="mask-type:alpha" maskUnits="userSpaceOnUse" x="0" y="0" width="24" height="24">
<rect x="24" width="24" height="24" transform="rotate(90 24 0)" fill="#D9D9D9"/>
</mask>
<g mask="url(#mask0_547_1673)">
<path d="M4.25 5.9226C4.25 5.70993 4.32192 5.53185 4.46575 5.38835C4.60942 5.24468 4.7875 5.17285 5 5.17285H11.3077V3.92285C11.3077 3.71035 11.3797 3.53227 11.5235 3.3886C11.6673 3.24477 11.8455 3.17285 12.058 3.17285C12.2707 3.17285 12.4488 3.24477 12.5922 3.3886C12.7359 3.53227 12.8077 3.71035 12.8077 3.92285V7.92285C12.8077 8.13535 12.7358 8.31352 12.592 8.45735C12.4482 8.60102 12.2699 8.67285 12.0573 8.67285C11.8447 8.67285 11.6667 8.60102 11.523 8.45735C11.3795 8.31352 11.3077 8.13535 11.3077 7.92285V6.67285H5C4.7875 6.67285 4.60942 6.60094 4.46575 6.4571C4.32192 6.31327 4.25 6.1351 4.25 5.9226ZM15.1922 5.9226C15.1922 5.70993 15.2642 5.53185 15.408 5.38835C15.5517 5.24468 15.7298 5.17285 15.9423 5.17285H19C19.2125 5.17285 19.3906 5.24477 19.5342 5.3886C19.6781 5.53244 19.75 5.71069 19.75 5.92335C19.75 6.13585 19.6781 6.31393 19.5342 6.4576C19.3906 6.6011 19.2125 6.67285 19 6.67285H15.9423C15.7298 6.67285 15.5517 6.60094 15.408 6.4571C15.2642 6.31327 15.1922 6.1351 15.1922 5.9226ZM15.1922 9.99985C15.1922 9.78735 15.2642 9.60927 15.408 9.4656C15.5518 9.32177 15.7301 9.24985 15.9428 9.24985C16.1553 9.24985 16.3333 9.32177 16.477 9.4656C16.6205 9.60927 16.6923 9.78735 16.6923 9.99985V11.2499H19C19.2125 11.2499 19.3906 11.3218 19.5342 11.4656C19.6781 11.6094 19.75 11.7876 19.75 12.0001C19.75 12.2128 19.6781 12.3909 19.5342 12.5344C19.3906 12.678 19.2125 12.7499 19 12.7499H16.6923V13.9999C16.6923 14.2124 16.6203 14.3904 16.4765 14.5341C16.3327 14.6779 16.1545 14.7499 15.942 14.7499C15.7293 14.7499 15.5512 14.6779 15.4077 14.5341C15.2641 14.3904 15.1922 14.2124 15.1922 13.9999V9.99985ZM4.25 11.9996C4.25 11.7869 4.32192 11.6089 4.46575 11.4654C4.60942 11.3217 4.7875 11.2499 5 11.2499H12.0577C12.2702 11.2499 12.4483 11.3218 12.592 11.4656C12.7358 11.6094 12.8077 11.7876 12.8077 12.0001C12.8077 12.2128 12.7358 12.3909 12.592 12.5344C12.4483 12.678 12.2702 12.7499 12.0577 12.7499H5C4.7875 12.7499 4.60942 12.6779 4.46575 12.5341C4.32192 12.3903 4.25 12.2121 4.25 11.9996ZM4.25 18.0764C4.25 17.8639 4.32192 17.6858 4.46575 17.5421C4.60942 17.3986 4.7875 17.3269 5 17.3269H7.30775V16.0769C7.30775 15.8644 7.37967 15.6862 7.5235 15.5424C7.66733 15.3987 7.8455 15.3269 8.058 15.3269C8.27067 15.3269 8.44875 15.3987 8.59225 15.5424C8.73592 15.6862 8.80775 15.8644 8.80775 16.0769V20.0769C8.80775 20.2894 8.73583 20.4674 8.592 20.6111C8.44817 20.7549 8.26992 20.8269 8.05725 20.8269C7.84475 20.8269 7.66667 20.7549 7.523 20.6111C7.3795 20.4674 7.30775 20.2894 7.30775 20.0769V18.8269H5C4.7875 18.8269 4.60942 18.7549 4.46575 18.6111C4.32192 18.4673 4.25 18.289 4.25 18.0764ZM11.1923 18.0764C11.1923 17.8639 11.2642 17.6858 11.408 17.5421C11.5517 17.3986 11.7297 17.3269 11.9422 17.3269H19C19.2125 17.3269 19.3906 17.3988 19.5342 17.5426C19.6781 17.6864 19.75 17.8646 19.75 18.0771C19.75 18.2898 19.6781 18.4679 19.5342 18.6114C19.3906 18.755 19.2125 18.8269 19 18.8269H11.9422C11.7297 18.8269 11.5517 18.7549 11.408 18.6111C11.2642 18.4673 11.1923 18.289 11.1923 18.0764Z" fill="#1C1B1F"/>
</g>
</svg>
