<svg width="12" height="14" viewBox="0 0 12 14" fill="none" xmlns="http://www.w3.org/2000/svg">
<path d="M5.99046 12.0186L5.9988 12.0261L6.00713 12.0186C7.3119 10.8506 8.3108 9.72987 9.00347 8.65644C9.69596 7.58327 10.0433 6.64175 10.0433 5.83233C10.0433 4.61408 9.65615 3.6117 8.88136 2.82621C8.10669 2.04084 7.14555 1.64816 5.9988 1.64816C4.85205 1.64816 3.8909 2.04084 3.11623 2.82621C2.34145 3.6117 1.9543 4.61408 1.9543 5.83233C1.9543 6.64175 2.30163 7.58327 2.99413 8.65644C3.6868 9.72987 4.68569 10.8506 5.99046 12.0186ZM6.84178 6.54734C6.60866 6.78122 6.32829 6.89799 5.99996 6.89799C5.67151 6.89799 5.39068 6.7816 5.15679 6.54847C4.9229 6.31536 4.80613 6.03498 4.80613 5.70666C4.80613 5.37821 4.92258 5.09738 5.15582 4.86348C5.38893 4.6296 5.66931 4.51283 5.99763 4.51283C6.32608 4.51283 6.60691 4.62922 6.8408 4.86234C7.07469 5.09557 7.19146 5.376 7.19146 5.70433C7.19146 6.03266 7.07501 6.31344 6.84178 6.54734ZM5.9988 13.3234C4.3256 11.8728 3.07109 10.523 2.23485 9.2742C1.39721 8.02318 0.979297 6.87598 0.979297 5.83233C0.979297 4.29685 1.47581 3.05477 2.46827 2.10486C3.46131 1.1545 4.63794 0.679492 5.9988 0.679492C7.35965 0.679492 8.53629 1.1545 9.52932 2.10486C10.5218 3.05477 11.0183 4.29685 11.0183 5.83233C11.0183 6.87598 10.6004 8.02318 9.76274 9.2742C8.9265 10.523 7.67199 11.8728 5.9988 13.3234Z" fill="#1C1B1F" stroke="#654321" stroke-width="0.025"/>
</svg>
