<svg width="20" height="13" viewBox="0 0 20 13" fill="none" xmlns="http://www.w3.org/2000/svg">
<path d="M1.25 12.4808C1.0375 12.4808 0.859417 12.4088 0.71575 12.265C0.571917 12.1212 0.5 11.943 0.5 11.7305C0.5 11.5178 0.571917 11.3398 0.71575 11.1962C0.859417 11.0526 1.0375 10.9808 1.25 10.9808H9.529C9.7415 10.9808 9.91958 11.0527 10.0633 11.1965C10.2069 11.3403 10.2788 11.5185 10.2788 11.731C10.2788 11.9437 10.2069 12.1217 10.0633 12.2653C9.91958 12.4089 9.7415 12.4808 9.529 12.4808H1.25ZM1.25 7.5865C1.0375 7.5865 0.859417 7.51458 0.71575 7.37075C0.571917 7.22692 0.5 7.04875 0.5 6.83625C0.5 6.62358 0.571917 6.4455 0.71575 6.302C0.859417 6.15833 1.0375 6.0865 1.25 6.0865H4.48075C4.69325 6.0865 4.87142 6.15842 5.01525 6.30225C5.15892 6.44608 5.23075 6.62425 5.23075 6.83675C5.23075 7.04942 5.15892 7.22758 5.01525 7.37125C4.87142 7.51475 4.69325 7.5865 4.48075 7.5865H1.25ZM1.25 2.69225C1.0375 2.69225 0.859417 2.62033 0.71575 2.4765C0.571917 2.33267 0.5 2.1545 0.5 1.942C0.5 1.72933 0.571917 1.55125 0.71575 1.40775C0.859417 1.26408 1.0375 1.19225 1.25 1.19225H4.48075C4.69325 1.19225 4.87142 1.26417 5.01525 1.408C5.15892 1.55183 5.23075 1.73008 5.23075 1.94275C5.23075 2.15525 5.15892 2.33333 5.01525 2.477C4.87142 2.6205 4.69325 2.69225 4.48075 2.69225H1.25ZM11.9615 9.5095C10.7085 9.5095 9.6405 9.07175 8.7575 8.19625C7.87433 7.32058 7.43275 6.25675 7.43275 5.00475C7.43275 3.75292 7.8745 2.68917 8.758 1.8135C9.64167 0.937833 10.7102 0.5 11.9637 0.5C13.2174 0.5 14.2853 0.937833 15.1673 1.8135C16.0493 2.68917 16.4902 3.75133 16.4902 5C16.4902 5.46417 16.4178 5.92092 16.273 6.37025C16.1282 6.81958 15.9141 7.23142 15.6307 7.60575L18.973 10.9192C19.1178 11.0556 19.1903 11.2291 19.1903 11.4397C19.1903 11.6504 19.1178 11.8282 18.973 11.973C18.8367 12.1115 18.6632 12.1807 18.4525 12.1807C18.2418 12.1807 18.0641 12.1115 17.9193 11.973L14.577 8.6595C14.1962 8.9365 13.7811 9.14742 13.3318 9.29225C12.8824 9.43708 12.4257 9.5095 11.9615 9.5095ZM11.9615 8.0095C12.8028 8.0095 13.518 7.71783 14.107 7.1345C14.696 6.55117 14.9905 5.84125 14.9905 5.00475C14.9905 4.16825 14.696 3.45833 14.107 2.875C13.518 2.29167 12.8028 2 11.9615 2C11.1202 2 10.405 2.29167 9.816 2.875C9.22717 3.45833 8.93275 4.16825 8.93275 5.00475C8.93275 5.84125 9.22717 6.55117 9.816 7.1345C10.405 7.71783 11.1202 8.0095 11.9615 8.0095Z" fill="#1C1B1F" fill-opacity="0.6"/>
</svg>
