<svg width="19" height="21" viewBox="0 0 19 21" fill="none" xmlns="http://www.w3.org/2000/svg">
<path d="M9.5 15.5778C10.4788 15.5778 11.3312 15.274 12.057 14.6663C12.7829 14.0587 13.2413 13.2861 13.4323 12.3486C13.467 12.2111 13.4388 12.0943 13.3477 11.9981C13.2565 11.9019 13.1372 11.8538 12.9896 11.8538H5.98438C5.85417 11.8538 5.74349 11.9016 5.65234 11.9971C5.5612 12.0926 5.53299 12.2097 5.56771 12.3486C5.75868 13.2861 6.2171 14.0587 6.94297 14.6663C7.66884 15.274 8.52118 15.5778 9.5 15.5778ZM9.5 20.9163C8.19792 20.9163 6.9783 20.6689 5.84115 20.1742C4.70399 19.6794 3.71441 19.011 2.8724 18.1689C2.03038 17.3269 1.36198 16.3373 0.867188 15.2002C0.372396 14.063 0.125 12.8521 0.125 11.5674V1.64551C0.125 1.21582 0.278038 0.847938 0.584115 0.541862C0.890018 0.235959 1.25781 0.0830078 1.6875 0.0830078H17.3125C17.7422 0.0830078 18.1101 0.235959 18.4161 0.541862C18.722 0.847938 18.875 1.21582 18.875 1.64551V11.5674C18.875 12.8521 18.6276 14.063 18.1328 15.2002C17.638 16.3373 16.9696 17.3269 16.1276 18.1689C15.2856 19.011 14.296 19.6794 13.1589 20.1742C12.0217 20.6689 10.8021 20.9163 9.5 20.9163ZM9.5 19.3538C11.6701 19.3538 13.5148 18.5986 15.0339 17.0882C16.5529 15.5778 17.3125 13.7375 17.3125 11.5674V1.64551H1.6875V11.5674C1.6875 13.7375 2.44705 15.5778 3.96615 17.0882C5.48524 18.5986 7.32986 19.3538 9.5 19.3538ZM6.27109 5.44759C5.83689 5.44759 5.45486 5.5778 5.125 5.83822C4.79514 6.09863 4.57812 6.42849 4.47396 6.8278C4.43924 6.94933 4.46528 7.05783 4.55208 7.15332C4.63889 7.24881 4.75174 7.29655 4.89062 7.29655H7.65104C7.78993 7.29655 7.90278 7.24768 7.98958 7.14994C8.07639 7.05237 8.10243 6.94499 8.06771 6.8278C7.96354 6.42849 7.74661 6.09863 7.41693 5.83822C7.08724 5.5778 6.7053 5.44759 6.27109 5.44759ZM12.7294 5.44759C12.2952 5.44759 11.9089 5.5778 11.5703 5.83822C11.2318 6.09863 11.0104 6.42849 10.9062 6.8278C10.8715 6.94933 10.8976 7.05783 10.9844 7.15332C11.0712 7.24881 11.184 7.29655 11.3229 7.29655H14.1094C14.2483 7.29655 14.3611 7.24768 14.4479 7.14994C14.5347 7.05237 14.5608 6.94499 14.526 6.8278C14.4219 6.42849 14.2049 6.09863 13.8753 5.83822C13.5456 5.5778 13.1636 5.44759 12.7294 5.44759Z" fill="#654321"/>
</svg>
