<svg width="25" height="24" viewBox="0 0 25 24" fill="none" xmlns="http://www.w3.org/2000/svg">
<mask id="mask0_824_1963" style="mask-type:alpha" maskUnits="userSpaceOnUse" x="0" y="0" width="25" height="24">
<rect x="0.447266" width="24" height="24" fill="#D9D9D9"/>
</mask>
<g mask="url(#mask0_824_1963)">
<path d="M12.4473 19.269C12.0348 19.269 11.6817 19.1221 11.388 18.8282C11.0942 18.5346 10.9473 18.1815 10.9473 17.769C10.9473 17.3565 11.0942 17.0033 11.388 16.7095C11.6817 16.4158 12.0348 16.269 12.4473 16.269C12.8598 16.269 13.2128 16.4158 13.5065 16.7095C13.8003 17.0033 13.9473 17.3565 13.9473 17.769C13.9473 18.1815 13.8003 18.5346 13.5065 18.8282C13.2128 19.1221 12.8598 19.269 12.4473 19.269ZM12.4473 13.4997C12.0348 13.4997 11.6817 13.3528 11.388 13.059C11.0942 12.7653 10.9473 12.4122 10.9473 11.9997C10.9473 11.5872 11.0942 11.2341 11.388 10.9405C11.6817 10.6466 12.0348 10.4997 12.4473 10.4997C12.8598 10.4997 13.2128 10.6466 13.5065 10.9405C13.8003 11.2341 13.9473 11.5872 13.9473 11.9997C13.9473 12.4122 13.8003 12.7653 13.5065 13.059C13.2128 13.3528 12.8598 13.4997 12.4473 13.4997ZM12.4473 7.73047C12.0348 7.73047 11.6817 7.58364 11.388 7.28997C11.0942 6.99614 10.9473 6.64297 10.9473 6.23047C10.9473 5.81797 11.0942 5.46489 11.388 5.17122C11.6817 4.87739 12.0348 4.73047 12.4473 4.73047C12.8598 4.73047 13.2128 4.87739 13.5065 5.17122C13.8003 5.46489 13.9473 5.81797 13.9473 6.23047C13.9473 6.64297 13.8003 6.99614 13.5065 7.28997C13.2128 7.58364 12.8598 7.73047 12.4473 7.73047Z" fill="#1C1B1F"/>
</g>
</svg>
