<svg width="29" height="28" viewBox="0 0 29 28" fill="none" xmlns="http://www.w3.org/2000/svg">
<g clip-path="url(#clip0_547_1534)">
<path d="M2.74942 1.29785C1.86725 1.29785 1.16406 1.93288 1.16406 2.72913C1.16406 3.52538 1.86725 4.16052 2.74942 4.16052C3.63159 4.16052 4.33472 3.52538 4.33472 2.72913C4.33472 1.93288 3.63153 1.29785 2.74942 1.29785ZM25.2506 1.29785C24.3685 1.29785 23.6653 1.93288 23.6653 2.72913C23.6653 3.52538 24.3685 4.16052 25.2506 4.16052C26.1327 4.16052 26.8359 3.52538 26.8359 2.72913C26.8359 1.93288 26.1327 1.29785 25.2506 1.29785ZM2.74942 5.1449C1.86725 5.1449 1.16406 5.77993 1.16406 6.57618C1.16406 7.37243 1.86725 8.00746 2.74942 8.00746C3.63159 8.00746 4.33472 7.37243 4.33472 6.57618C4.33472 5.77993 3.63153 5.1449 2.74942 5.1449ZM25.2506 5.1449C24.3685 5.1449 23.6653 5.77993 23.6653 6.57618C23.6653 7.37243 24.3685 8.00746 25.2506 8.00746C26.1327 8.00746 26.8359 7.37243 26.8359 6.57618C26.8359 5.77993 26.1327 5.1449 25.2506 5.1449ZM3.81456 8.99183C2.93239 8.99183 2.2292 9.62698 2.2292 10.4232C2.2292 11.2195 2.93239 11.8545 3.8145 11.8545C4.69667 11.8545 5.39998 11.2194 5.39998 10.4232C5.39998 9.62698 4.69673 8.99183 3.81456 8.99183ZM24.1855 8.99183C23.3033 8.99183 22.6 9.62698 22.6 10.4232C22.6 11.2195 23.3033 11.8545 24.1855 11.8545C25.0677 11.8545 25.7708 11.2194 25.7708 10.4232C25.7708 9.62698 25.0676 8.99183 24.1855 8.99183ZM5.94484 12.8388C5.06268 12.8388 4.35936 13.4739 4.35936 14.2701C4.35936 15.0663 5.06274 15.7015 5.94484 15.7015C6.82701 15.7015 7.5302 15.0664 7.5302 14.2701C7.5302 13.4739 6.82695 12.8388 5.94484 12.8388ZM22.055 12.8388C21.1729 12.8388 20.4697 13.4739 20.4697 14.2701C20.4697 15.0663 21.1729 15.7015 22.055 15.7015C22.9371 15.7015 23.6405 15.0664 23.6405 14.2701C23.6405 13.4739 22.9371 12.8388 22.055 12.8388ZM9.73944 15.1832C8.85727 15.1832 8.15396 15.8182 8.15396 16.6144C8.15396 17.4106 8.85733 18.0457 9.73944 18.0457C10.6216 18.0457 11.3247 17.4106 11.3247 16.6145C11.3247 15.8182 10.6215 15.1832 9.73944 15.1832ZM18.2604 15.1832C17.3783 15.1832 16.6751 15.8182 16.6751 16.6144C16.6751 17.4106 17.3783 18.0457 18.2604 18.0457C19.1426 18.0457 19.8459 17.4106 19.8459 16.6145C19.8459 15.8182 19.1425 15.1832 18.2604 15.1832ZM14 16.1449C13.1178 16.1449 12.4146 16.7799 12.4146 17.5761C12.4146 18.3724 13.1179 19.0075 14 19.0075C14.8821 19.0075 15.5854 18.3724 15.5854 17.5761C15.5854 16.7799 14.8821 16.1449 14 16.1449ZM14 19.9919C11.9414 19.9919 10.2844 21.4881 10.2844 23.3466C10.2844 25.2052 11.9413 26.7015 14 26.7015C16.0587 26.7015 17.7158 25.2052 17.7158 23.3466C17.7158 21.4881 16.0586 19.9919 14 19.9919Z" fill="#FCA311"/>
</g>
<defs>
<clipPath id="clip0_547_1534">
<rect width="28" height="28" fill="white" transform="translate(0.5)"/>
</clipPath>
</defs>
</svg>
