<svg width="15" height="16" viewBox="0 0 15 16" fill="none" xmlns="http://www.w3.org/2000/svg">
<path d="M7.5 7.69238C6.5375 7.69238 5.71358 7.34972 5.02825 6.66438C4.34275 5.97888 4 5.15488 4 4.19238C4 3.22988 4.34275 2.40597 5.02825 1.72063C5.71358 1.03513 6.5375 0.692383 7.5 0.692383C8.4625 0.692383 9.28642 1.03513 9.97175 1.72063C10.6573 2.40597 11 3.22988 11 4.19238C11 5.15488 10.6573 5.97888 9.97175 6.66438C9.28642 7.34972 8.4625 7.69238 7.5 7.69238ZM0 13.7886V13.0846C0 12.595 0.133 12.1415 0.399 11.7241C0.665 11.3068 1.0205 10.986 1.4655 10.7616C2.45383 10.2771 3.45092 9.91372 4.45675 9.67138C5.46258 9.42905 6.477 9.30788 7.5 9.30788C8.523 9.30788 9.53742 9.42905 10.5433 9.67138C11.5491 9.91372 12.5462 10.2771 13.5345 10.7616C13.9795 10.986 14.335 11.3068 14.601 11.7241C14.867 12.1415 15 12.595 15 13.0846V13.7886C15 14.2103 14.8523 14.569 14.5568 14.8646C14.2613 15.1601 13.9026 15.3079 13.4808 15.3079H1.51925C1.09742 15.3079 0.73875 15.1601 0.44325 14.8646C0.14775 14.569 0 14.2103 0 13.7886ZM1.5 13.8079H13.5V13.0846C13.5 12.8821 13.4413 12.6946 13.324 12.5221C13.2067 12.3498 13.0474 12.2091 12.8462 12.1001C11.9846 11.6758 11.1061 11.3543 10.2107 11.1356C9.31525 10.9171 8.41167 10.8079 7.5 10.8079C6.58833 10.8079 5.68475 10.9171 4.78925 11.1356C3.89392 11.3543 3.01542 11.6758 2.15375 12.1001C1.95258 12.2091 1.79333 12.3498 1.676 12.5221C1.55867 12.6946 1.5 12.8821 1.5 13.0846V13.8079ZM7.5 6.19238C8.05 6.19238 8.52083 5.99655 8.9125 5.60488C9.30417 5.21322 9.5 4.74238 9.5 4.19238C9.5 3.64238 9.30417 3.17155 8.9125 2.77988C8.52083 2.38822 8.05 2.19238 7.5 2.19238C6.95 2.19238 6.47917 2.38822 6.0875 2.77988C5.69583 3.17155 5.5 3.64238 5.5 4.19238C5.5 4.74238 5.69583 5.21322 6.0875 5.60488C6.47917 5.99655 6.95 6.19238 7.5 6.19238Z" fill="#1C1B1F" fill-opacity="0.6"/>
</svg>
