<svg width="259" height="23" viewBox="0 0 259 23" fill="none" xmlns="http://www.w3.org/2000/svg">
<path d="M5.57031 11.4219H254" stroke="#CCC0B5" stroke-width="10" stroke-linecap="round"/>
<path d="M59.1133 11.4219L203.317 11.4219" stroke="#654321" stroke-width="10" stroke-linecap="round"/>
<path d="M211.524 11.1048C211.524 15.9436 207.764 19.7096 203.316 19.7096C198.867 19.7096 195.107 15.9436 195.107 11.1048C195.107 6.26602 198.867 2.5 203.316 2.5C207.764 2.5 211.524 6.26602 211.524 11.1048Z" fill="#654321" stroke="#654321" stroke-width="5"/>
<path d="M67.3207 11.8187C67.3207 16.6574 63.5608 20.4234 59.1125 20.4234C54.6641 20.4234 50.9043 16.6574 50.9043 11.8187C50.9043 6.97989 54.6641 3.21387 59.1125 3.21387C63.5608 3.21387 67.3207 6.97989 67.3207 11.8187Z" fill="#654321" stroke="#654321" stroke-width="5"/>
</svg>
