<svg width="17" height="17" viewBox="0 0 17 17" fill="none" xmlns="http://www.w3.org/2000/svg">
<path d="M6.53934 12.231C4.94068 12.231 3.58584 11.6756 2.47484 10.5648C1.36401 9.45378 0.808594 8.09895 0.808594 6.50028C0.808594 4.90161 1.36401 3.54678 2.47484 2.43578C3.58584 1.32495 4.94068 0.769531 6.53934 0.769531C8.13801 0.769531 9.49284 1.32495 10.6038 2.43578C11.7147 3.54678 12.2701 4.90161 12.2701 6.50028C12.2701 7.19511 12.147 7.86753 11.9008 8.51753C11.6547 9.16753 11.3316 9.72328 10.9316 10.1848L16.8393 16.0925C16.9328 16.1862 16.9828 16.3009 16.9893 16.4368C16.9957 16.5728 16.9457 16.6939 16.8393 16.8003C16.7328 16.9066 16.6148 16.9598 16.4853 16.9598C16.356 16.9598 16.2381 16.9066 16.1316 16.8003L10.2238 10.8925C9.72384 11.3182 9.14884 11.6477 8.49884 11.881C7.84884 12.1144 7.19568 12.231 6.53934 12.231ZM6.53934 11.231C7.86618 11.231 8.98634 10.7743 9.89984 9.86078C10.8133 8.94745 11.2701 7.82728 11.2701 6.50028C11.2701 5.17328 10.8133 4.05311 9.89984 3.13978C8.98634 2.22628 7.86618 1.76953 6.53934 1.76953C5.21234 1.76953 4.09218 2.22628 3.17884 3.13978C2.26534 4.05311 1.80859 5.17328 1.80859 6.50028C1.80859 7.82728 2.26534 8.94745 3.17884 9.86078C4.09218 10.7743 5.21234 11.231 6.53934 11.231Z" fill="#8B8B8B"/>
</svg>
