<svg width="25" height="24" viewBox="0 0 25 24" fill="none" xmlns="http://www.w3.org/2000/svg">
<mask id="mask0_824_1960" style="mask-type:alpha" maskUnits="userSpaceOnUse" x="0" y="0" width="25" height="24">
<rect x="0.447266" width="24" height="24" fill="#D9D9D9"/>
</mask>
<g mask="url(#mask0_824_1960)">
<path d="M18.4485 21.75C17.6848 21.75 17.0354 21.4827 16.5003 20.948C15.9649 20.4132 15.6973 19.7638 15.6973 19C15.6973 18.8752 15.7072 18.7459 15.727 18.6122C15.747 18.4784 15.7768 18.3551 15.8165 18.2423L8.42027 13.9115C8.15627 14.1743 7.85568 14.3798 7.51852 14.5278C7.18135 14.6759 6.82427 14.75 6.44727 14.75C5.68343 14.75 5.0341 14.4827 4.49927 13.9482C3.9646 13.4137 3.69727 12.7648 3.69727 12.0013C3.69727 11.2376 3.9646 10.5882 4.49927 10.053C5.0341 9.51767 5.68343 9.25 6.44727 9.25C6.82427 9.25 7.18135 9.32408 7.51852 9.47225C7.85568 9.62025 8.15627 9.82567 8.42027 10.0885L15.8165 5.75775C15.7768 5.64492 15.747 5.52158 15.727 5.38775C15.7072 5.25408 15.6973 5.12483 15.6973 5C15.6973 4.23617 15.9645 3.58683 16.499 3.052C17.0335 2.51733 17.6825 2.25 18.446 2.25C19.2097 2.25 19.8591 2.51725 20.3943 3.05175C20.9296 3.58625 21.1973 4.23525 21.1973 4.99875C21.1973 5.76242 20.9299 6.41183 20.3953 6.947C19.8604 7.48233 19.2111 7.75 18.4473 7.75C18.0703 7.75 17.7132 7.67592 17.376 7.52775C17.0388 7.37975 16.7383 7.17433 16.4743 6.9115L9.07802 11.2423C9.11768 11.3551 9.14752 11.4782 9.16752 11.6115C9.18735 11.7448 9.19727 11.8737 9.19727 11.998C9.19727 12.1223 9.18735 12.2518 9.16752 12.3865C9.14752 12.5212 9.11768 12.6449 9.07802 12.7578L16.4743 17.0885C16.7383 16.8257 17.0388 16.6203 17.376 16.4723C17.7132 16.3241 18.0703 16.25 18.4473 16.25C19.2111 16.25 19.8604 16.5173 20.3953 17.0518C20.9299 17.5863 21.1973 18.2353 21.1973 18.9988C21.1973 19.7624 20.93 20.4118 20.3955 20.947C19.861 21.4823 19.212 21.75 18.4485 21.75ZM18.4473 6.25C18.7948 6.25 19.0899 6.1285 19.3328 5.8855C19.5758 5.64267 19.6973 5.3475 19.6973 5C19.6973 4.6525 19.5758 4.35733 19.3328 4.1145C19.0899 3.8715 18.7948 3.75 18.4473 3.75C18.0998 3.75 17.8046 3.8715 17.5618 4.1145C17.3188 4.35733 17.1973 4.6525 17.1973 5C17.1973 5.3475 17.3188 5.64267 17.5618 5.8855C17.8046 6.1285 18.0998 6.25 18.4473 6.25ZM6.44727 13.25C6.79477 13.25 7.08993 13.1285 7.33277 12.8855C7.57577 12.6427 7.69727 12.3475 7.69727 12C7.69727 11.6525 7.57577 11.3573 7.33277 11.1145C7.08993 10.8715 6.79477 10.75 6.44727 10.75C6.09977 10.75 5.8046 10.8715 5.56177 11.1145C5.31877 11.3573 5.19727 11.6525 5.19727 12C5.19727 12.3475 5.31877 12.6427 5.56177 12.8855C5.8046 13.1285 6.09977 13.25 6.44727 13.25ZM18.4473 20.25C18.7948 20.25 19.0899 20.1285 19.3328 19.8855C19.5758 19.6427 19.6973 19.3475 19.6973 19C19.6973 18.6525 19.5758 18.3573 19.3328 18.1145C19.0899 17.8715 18.7948 17.75 18.4473 17.75C18.0998 17.75 17.8046 17.8715 17.5618 18.1145C17.3188 18.3573 17.1973 18.6525 17.1973 19C17.1973 19.3475 17.3188 19.6427 17.5618 19.8855C17.8046 20.1285 18.0998 20.25 18.4473 20.25Z" fill="#1C1B1F"/>
</g>
</svg>
