<svg width="28" height="28" viewBox="0 0 28 28" fill="none" xmlns="http://www.w3.org/2000/svg">
<g clip-path="url(#clip0_547_1526)">
<path fill-rule="evenodd" clip-rule="evenodd" d="M21.0301 4.55252C20.8528 4.24568 20.5074 3.97852 20.1948 3.97852C19.6348 3.97852 18.9149 4.53852 18.4798 4.87802C17.8276 5.38552 17.0669 5.86735 16.2503 6.03535C15.6459 6.15785 14.9249 6.06568 14.2879 5.89885C14.1829 5.87202 13.2799 5.55585 13.2799 5.55585C12.0293 4.97835 11.4739 6.61985 10.9804 7.42835C10.6421 7.98018 10.2163 8.63818 9.7321 9.30202C9.53877 9.28415 9.34403 9.31483 9.16555 9.39126C8.98706 9.46768 8.83048 9.58745 8.70998 9.73969C8.58948 9.89193 8.50889 10.0718 8.4755 10.2631C8.44211 10.4544 8.45698 10.651 8.51877 10.835C8.15944 11.2748 7.81877 11.696 7.49561 12.102C7.27176 12.0388 7.03413 12.044 6.81324 12.1169C6.59235 12.1897 6.39828 12.3269 6.25594 12.5109C6.11361 12.6949 6.02952 12.9172 6.01446 13.1493C5.9994 13.3814 6.05407 13.6127 6.17144 13.8135C4.92077 15.4853 4.05977 16.8445 3.56277 18.0544C3.14277 19.081 2.96311 20.0412 3.04127 21.02C3.11944 21.9848 3.44027 22.8843 3.88944 23.792C4.49844 25.0229 5.99177 25.36 7.08494 24.7288L24.2606 14.8122C24.7965 14.5028 25.1875 13.9931 25.3477 13.3954C25.5079 12.7976 25.424 12.1608 25.1146 11.6248L21.0301 4.55252ZM21.3428 9.76052L19.6873 6.89402C18.7959 7.53102 17.8008 8.09918 16.7181 8.32085C15.6051 8.54835 14.4793 8.36052 13.6999 8.15752C13.2204 8.03268 13.2286 8.22402 12.9708 8.64518C12.6768 9.12702 12.3128 9.69402 11.8974 10.2855L12.0269 10.3497C12.1653 10.417 12.2889 10.5109 12.3908 10.6262C12.4926 10.7414 12.5707 10.8757 12.6205 11.0213C12.6703 11.1668 12.6908 11.3207 12.6808 11.4742C12.6709 11.6277 12.6307 11.7778 12.5626 11.9157C12.4944 12.0536 12.3997 12.1766 12.2838 12.2778C12.1679 12.3789 12.0331 12.4562 11.8873 12.505C11.7415 12.5539 11.5874 12.5735 11.4339 12.5626C11.2805 12.5517 11.1307 12.5105 10.9933 12.4415L10.4414 12.1685C10.1638 12.5092 9.90011 12.8335 9.64811 13.1485C9.90493 13.3029 10.0925 13.5501 10.172 13.839C10.2515 14.128 10.2167 14.4364 10.075 14.7004C9.93322 14.9644 9.69533 15.1637 9.41061 15.2571C9.12588 15.3504 8.81615 15.3306 8.5456 15.2018L8.1816 15.0222C6.91461 16.6987 6.13761 17.9237 5.71994 18.9398C5.41077 19.6947 5.32327 20.2862 5.36644 20.8334C5.40961 21.377 5.59044 21.958 5.94744 22.6907L23.0928 12.7915L22.5094 11.7812L17.4578 14.6978C17.19 14.8501 16.8728 14.8903 16.5755 14.8096C16.2781 14.7288 16.0248 14.5338 15.8708 14.267C15.7167 14.0002 15.6745 13.6833 15.7532 13.3854C15.832 13.0876 16.0253 12.833 16.2911 12.6772L21.3428 9.76052Z" fill="#03045E"/>
</g>
<defs>
<clipPath id="clip0_547_1526">
<rect width="28" height="28" fill="white"/>
</clipPath>
</defs>
</svg>
