<svg width="19" height="20" viewBox="0 0 19 20" fill="none" xmlns="http://www.w3.org/2000/svg">
<path d="M5.65375 19.5578C5.16792 19.5578 4.75483 19.3875 4.4145 19.047C4.07417 18.7067 3.904 18.2936 3.904 17.8078C3.904 17.3218 4.07417 16.9086 4.4145 16.5683C4.75483 16.2279 5.16792 16.0577 5.65375 16.0577C6.13975 16.0577 6.55292 16.2279 6.89325 16.5683C7.23358 16.9086 7.40375 17.3218 7.40375 17.8078C7.40375 18.2936 7.23358 18.7067 6.89325 19.047C6.55292 19.3875 6.13975 19.5578 5.65375 19.5578ZM15.3463 19.5578C14.8603 19.5578 14.4471 19.3875 14.1068 19.047C13.7664 18.7067 13.5963 18.2936 13.5963 17.8078C13.5963 17.3218 13.7664 16.9086 14.1068 16.5683C14.4471 16.2279 14.8603 16.0577 15.3463 16.0577C15.8321 16.0577 16.2452 16.2279 16.5855 16.5683C16.9258 16.9086 17.096 17.3218 17.096 17.8078C17.096 18.2936 16.9258 18.7067 16.5855 19.047C16.2452 19.3875 15.8321 19.5578 15.3463 19.5578ZM4.51525 3.75L7.05 9.05775H13.8673C13.9249 9.05775 13.9763 9.04333 14.0213 9.0145C14.0661 8.98567 14.1045 8.94558 14.1365 8.89425L16.8193 4.01925C16.8578 3.94875 16.8609 3.88625 16.8288 3.83175C16.7968 3.77725 16.7423 3.75 16.6653 3.75H4.51525ZM3.79625 2.25H17.6808C18.0898 2.25 18.399 2.42408 18.6085 2.77225C18.8182 3.12025 18.8282 3.47567 18.6385 3.8385L15.4345 9.64225C15.2705 9.93075 15.0536 10.1554 14.7838 10.3162C14.5138 10.4773 14.2179 10.5577 13.8963 10.5577H6.6L5.44225 12.673C5.39092 12.75 5.38933 12.8333 5.4375 12.923C5.4855 13.0128 5.55758 13.0577 5.65375 13.0577H16.3463C16.5589 13.0577 16.7371 13.1295 16.8808 13.273C17.0243 13.4167 17.096 13.5949 17.096 13.8077C17.096 14.0206 17.0243 14.1987 16.8808 14.3422C16.7371 14.4859 16.5589 14.5577 16.3463 14.5577H5.65375C4.98708 14.5577 4.48617 14.2703 4.151 13.6953C3.81567 13.1203 3.80383 12.5462 4.1155 11.973L5.54225 9.40775L1.904 1.75H0.75C0.537167 1.75 0.359 1.67817 0.2155 1.5345C0.0718334 1.391 0 1.21283 0 1C0 0.787167 0.0718334 0.609 0.2155 0.4655C0.359 0.321833 0.537167 0.25 0.75 0.25H2.27875C2.44942 0.25 2.60842 0.295166 2.75575 0.3855C2.90325 0.476 3.01542 0.60325 3.09225 0.76725L3.79625 2.25Z" fill="#1C1B1F" fill-opacity="0.6"/>
</svg>
