<svg width="11" height="10" viewBox="0 0 11 10" fill="none" xmlns="http://www.w3.org/2000/svg">
<path d="M5.12867 8.25457L2.53517 9.81857C2.4385 9.87501 2.34167 9.89873 2.24467 9.88973C2.14767 9.88073 2.05989 9.84807 1.98133 9.79173C1.90267 9.73529 1.84195 9.66156 1.79917 9.57057C1.7565 9.47957 1.74967 9.3789 1.77867 9.26857L2.46717 6.32373L0.177501 4.34173C0.0919456 4.2674 0.0374457 4.18129 0.0140012 4.0834C-0.00955431 3.98551 -0.00338764 3.8904 0.0325013 3.79807C0.0683901 3.70584 0.120112 3.63045 0.187668 3.5719C0.255223 3.51334 0.347557 3.47506 0.464668 3.45707L3.48633 3.19306L4.6595 0.412231C4.70217 0.308787 4.76689 0.232287 4.85367 0.182731C4.94045 0.133176 5.03211 0.108398 5.12867 0.108398C5.22522 0.108398 5.31689 0.133176 5.40367 0.182731C5.49045 0.232287 5.55517 0.308787 5.59784 0.412231L6.771 3.19306L9.79267 3.45707C9.90978 3.47506 10.0021 3.51334 10.0697 3.5719C10.1372 3.63045 10.1889 3.70584 10.2248 3.79807C10.2607 3.8904 10.2669 3.98551 10.2433 4.0834C10.2199 4.18129 10.1654 4.2674 10.0798 4.34173L7.79017 6.32373L8.47867 9.26857C8.50767 9.3789 8.50084 9.47957 8.45817 9.57057C8.41539 9.66156 8.35467 9.73529 8.276 9.79173C8.19745 9.84807 8.10967 9.88073 8.01267 9.88973C7.91567 9.89873 7.81883 9.87501 7.72217 9.81857L5.12867 8.25457Z" fill="#FFD700"/>
</svg>
