<svg width="57" height="56" viewBox="0 0 57 56" fill="none" xmlns="http://www.w3.org/2000/svg">
<circle cx="28.5" cy="28" r="28" fill="#00AB59" fill-opacity="0.12"/>
<path d="M27.9993 14.667C20.6527 14.667 14.666 20.6537 14.666 28.0003C14.666 35.347 20.6527 41.3337 27.9993 41.3337C35.346 41.3337 41.3327 35.347 41.3327 28.0003C41.3327 20.6537 35.346 14.667 27.9993 14.667ZM34.3727 24.9337L26.8127 32.4937C26.626 32.6803 26.3727 32.787 26.106 32.787C25.8393 32.787 25.586 32.6803 25.3993 32.4937L21.626 28.7203C21.2393 28.3337 21.2393 27.6937 21.626 27.307C22.0127 26.9203 22.6527 26.9203 23.0393 27.307L26.106 30.3737L32.9593 23.5203C33.346 23.1337 33.986 23.1337 34.3727 23.5203C34.7593 23.907 34.7593 24.5337 34.3727 24.9337Z" fill="#464646"/>
</svg>
