<svg width="28" height="28" viewBox="0 0 28 28" fill="none" xmlns="http://www.w3.org/2000/svg">
<path d="M19.8328 25.0912C18.5417 25.0912 17.4996 23.7846 17.4996 22.1668C17.4996 20.5646 18.5417 19.258 19.8328 19.258C21.1239 19.258 22.1661 20.5646 22.1661 22.1668C22.1661 23.7846 21.1239 25.0912 19.8328 25.0912ZM13.9996 12.8337C12.0708 12.8337 10.4997 11.5271 10.4997 9.92493C10.4997 8.30719 12.0708 7.00056 13.9996 7.00056C15.9285 7.00056 17.4996 8.30719 17.4996 9.92493C17.4996 11.5271 15.9285 12.8337 13.9996 12.8337ZM8.16647 25.0912C6.87539 25.0912 5.8332 23.7846 5.8332 22.1668C5.8332 20.5646 6.87539 19.258 8.16647 19.258C9.45754 19.258 10.4997 20.5646 10.4997 22.1668C10.4997 23.7846 9.45754 25.0912 8.16647 25.0912ZM13.9996 8.1672C14.6374 8.1672 15.1663 8.69607 15.1663 9.33383C15.1663 9.97159 14.6374 10.5005 13.9996 10.5005C13.3619 10.5005 12.833 9.97159 12.833 9.33383C12.833 8.69607 13.3619 8.1672 13.9996 8.1672ZM24.4994 14.0004C24.0016 14.0004 23.5194 14.1093 23.0838 14.3115C22.3372 13.3626 21.3261 12.5537 20.1128 11.9315C20.9995 10.6871 21.5283 9.17828 21.5283 7.54499V7.45166C23.2238 7.09389 24.4994 5.58504 24.4994 3.76509C24.4994 1.69626 22.8039 0.00074729 20.735 0.00074729C19.6617 0.00074729 18.6662 0.451846 18.0129 1.16738C16.8132 0.404929 15.4211 0 13.9996 0C12.5782 0 11.1861 0.404929 9.98642 1.16738C9.3331 0.451846 8.33757 0.00074729 7.26427 0.00074729C5.19544 0.00074729 3.49993 1.69626 3.49993 3.76509C3.49993 5.56949 4.77545 7.07834 6.4554 7.45166V7.54499C6.4554 9.17828 6.99983 10.7027 7.87092 11.9315C6.67317 12.5537 5.66209 13.3626 4.91544 14.3115C4.38387 14.072 3.80071 13.9698 3.21938 14.0141C2.63805 14.0584 2.07713 14.2479 1.58802 14.5653C1.09891 14.8826 0.697239 15.3175 0.4198 15.8303C0.142362 16.3431 -0.00197189 16.9173 2.03474e-05 17.5003C2.03474e-05 19.4447 1.55553 21.0002 3.49993 21.0002H3.59326C3.53104 21.3735 3.49993 21.7779 3.49993 22.1668C3.49993 25.3867 5.58431 28 8.16647 28C9.73754 28 11.1219 27.02 11.9775 25.5267C12.6308 25.6201 13.2997 25.6667 13.9996 25.6667C14.6996 25.6667 15.3685 25.6201 16.0218 25.5267C16.8773 27.02 18.2618 28 19.8328 28C22.415 28 24.4994 25.3867 24.4994 22.1668C24.4994 21.7779 24.4683 21.3735 24.406 21.0002H24.4994C26.4438 21.0002 27.9993 19.4447 27.9993 17.5003C27.9993 15.5559 26.4438 14.0004 24.4994 14.0004Z" fill="#001D3D"/>
</svg>
