<svg width="41" height="21" viewBox="0 0 41 21" fill="none" xmlns="http://www.w3.org/2000/svg">
<path d="M10.1299 20.3145C7.32645 20.3145 4.94337 19.3341 2.98067 17.3734C1.0183 15.4127 0.0371094 13.0318 0.0371094 10.2308C0.0371094 7.42968 1.0183 5.04577 2.98067 3.07903C4.94337 1.11228 7.32645 0.128906 10.1299 0.128906H30.3154C33.1189 0.128906 35.5019 1.10925 37.4646 3.06994C39.427 5.03063 40.4082 7.41151 40.4082 10.2126C40.4082 13.0137 39.427 15.3976 37.4646 17.3643C35.5019 19.3311 33.1189 20.3145 30.3154 20.3145H10.1299ZM10.1299 18.2959H30.3154C32.5358 18.2959 34.4366 17.5053 36.0178 15.9241C37.5991 14.3429 38.3896 12.4421 38.3896 10.2217C38.3896 8.00127 37.5991 6.10046 36.0178 4.51926C34.4366 2.93806 32.5358 2.14746 30.3154 2.14746H10.1299C7.90947 2.14746 6.00867 2.93806 4.42747 4.51926C2.84626 6.10046 2.05566 8.00127 2.05566 10.2217C2.05566 12.4421 2.84626 14.3429 4.42747 15.9241C6.00867 17.5053 7.90947 18.2959 10.1299 18.2959ZM10.1253 15.2681C11.5259 15.2681 12.7178 14.7779 13.7012 13.7975C14.6846 12.8172 15.1763 11.6268 15.1763 10.2262C15.1763 8.82568 14.6861 7.63372 13.7058 6.65035C12.7254 5.66698 11.535 5.17529 10.1344 5.17529C8.73388 5.17529 7.54193 5.66547 6.55855 6.64581C5.57518 7.62616 5.0835 8.8166 5.0835 10.2171C5.0835 11.6177 5.57367 12.8096 6.55401 13.793C7.53436 14.7764 8.7248 15.2681 10.1253 15.2681Z" fill="#654321"/>
</svg>
