<svg width="24" height="24" viewBox="0 0 24 24" fill="none" xmlns="http://www.w3.org/2000/svg">
<mask id="mask0_824_1866" style="mask-type:alpha" maskUnits="userSpaceOnUse" x="0" y="0" width="24" height="24">
<rect width="24" height="24" fill="#D9D9D9"/>
</mask>
<g mask="url(#mask0_824_1866)">
<path d="M5.84345 19.5577C5.06279 19.5577 4.40004 19.2847 3.8552 18.7387C3.31037 18.1927 3.03795 17.5298 3.03795 16.75H2.24945C1.99345 16.75 1.77879 16.6634 1.60545 16.4902C1.43229 16.3169 1.3457 16.1023 1.3457 15.8463V6.30775C1.3457 5.80258 1.5207 5.375 1.8707 5.025C2.2207 4.675 2.6482 4.5 3.1532 4.5H14.961C15.4581 4.5 15.8837 4.677 16.2377 5.031C16.5917 5.385 16.7687 5.81058 16.7687 6.30775V8.30775H18.5187C18.8049 8.30775 19.076 8.37175 19.3322 8.49975C19.5882 8.62775 19.799 8.80475 19.9647 9.03075L22.4725 12.3885C22.5328 12.4638 22.578 12.5467 22.6082 12.637C22.6382 12.7275 22.6532 12.8254 22.6532 12.9308V15.8463C22.6532 16.1023 22.5666 16.3169 22.3935 16.4902C22.2201 16.6634 22.0055 16.75 21.7495 16.75H20.8457C20.8457 17.5298 20.5725 18.1927 20.026 18.7387C19.4796 19.2847 18.8162 19.5577 18.0357 19.5577C17.2552 19.5577 16.5925 19.2847 16.0475 18.7387C15.5026 18.1927 15.2302 17.5298 15.2302 16.75H8.6532C8.6532 17.532 8.38004 18.1954 7.8337 18.7402C7.28737 19.2852 6.62395 19.5577 5.84345 19.5577ZM5.8457 18.0577C6.21237 18.0577 6.52195 17.9314 6.77445 17.6788C7.02695 17.4263 7.1532 17.1167 7.1532 16.75C7.1532 16.3833 7.02695 16.0737 6.77445 15.821C6.52195 15.5685 6.21237 15.4423 5.8457 15.4423C5.47904 15.4423 5.16937 15.5685 4.9167 15.821C4.6642 16.0737 4.53795 16.3833 4.53795 16.75C4.53795 17.1167 4.6642 17.4263 4.9167 17.6788C5.16937 17.9314 5.47904 18.0577 5.8457 18.0577ZM18.038 18.0577C18.4046 18.0577 18.7142 17.9314 18.9667 17.6788C19.2194 17.4263 19.3457 17.1167 19.3457 16.75C19.3457 16.3833 19.2194 16.0737 18.9667 15.821C18.7142 15.5685 18.4046 15.4423 18.038 15.4423C17.6713 15.4423 17.3616 15.5685 17.109 15.821C16.8565 16.0737 16.7302 16.3833 16.7302 16.75C16.7302 17.1167 16.8565 17.4263 17.109 17.6788C17.3616 17.9314 17.6713 18.0577 18.038 18.0577ZM16.7687 13.25H21.2495L18.7495 9.93275C18.7175 9.89425 18.6806 9.86375 18.639 9.84125C18.5973 9.81892 18.5508 9.80775 18.4995 9.80775H16.7687V13.25Z" fill="#654321"/>
</g>
</svg>
