<svg width="25" height="20" viewBox="0 0 25 20" fill="none" xmlns="http://www.w3.org/2000/svg">
<path d="M17.6872 0.265625C15.3644 0.265625 13.3448 1.22742 12.1569 2.83922C10.969 1.22742 8.9493 0.265625 6.62658 0.265625C4.86714 0.267507 3.18035 0.910129 1.93624 2.05252C0.692126 3.19491 -0.00771653 4.74379 -0.00976562 6.35937C-0.00976563 9.325 2.00326 12.4115 5.974 15.5315C7.79353 16.9551 9.75896 18.2136 11.8427 19.2893C11.9393 19.3369 12.0472 19.3619 12.1569 19.3619C12.2665 19.3619 12.3744 19.3369 12.471 19.2893C14.5548 18.2136 16.5202 16.9551 18.3397 15.5315C22.3105 12.4115 24.3235 9.325 24.3235 6.35937C24.3214 4.74379 23.6216 3.19491 22.3775 2.05252C21.1334 0.910129 19.4466 0.267507 17.6872 0.265625ZM12.1569 18.0502C10.3418 17.0884 1.3175 12.0184 1.3175 6.35937C1.31897 5.06686 1.87878 3.82766 2.87411 2.91371C3.86944 1.99977 5.21897 1.48572 6.62658 1.48437C8.86966 1.48437 10.7533 2.5843 11.543 4.35555C11.593 4.46731 11.6781 4.56291 11.7874 4.63018C11.8967 4.69746 12.0253 4.73338 12.1569 4.73338C12.2885 4.73338 12.4171 4.69746 12.5264 4.63018C12.6357 4.56291 12.7207 4.46731 12.7707 4.35555C13.5605 2.5843 15.4441 1.48437 17.6872 1.48437C19.0948 1.48572 20.4443 1.99977 21.4396 2.91371C22.4349 3.82766 22.9948 5.06686 22.9962 6.35937C22.9962 12.0184 13.9719 17.0884 12.1569 18.0502Z" fill="white"/>
</svg>
